<svg width="45" height="28" viewBox="0 0 45 28" fill="none" xmlns="http://www.w3.org/2000/svg">
<path d="M8.61914 5.31293V9.35829C8.61914 9.50843 8.67878 9.65242 8.78495 9.75859C8.89111 9.86475 9.0351 9.9244 9.18524 9.9244C9.33538 9.9244 9.47937 9.86475 9.58554 9.75859C9.6917 9.65242 9.75134 9.50843 9.75134 9.35829V5.31293C9.75134 5.16279 9.6917 5.0188 9.58554 4.91263C9.47937 4.80647 9.33538 4.74683 9.18524 4.74683C9.0351 4.74683 8.89111 4.80647 8.78495 4.91263C8.67878 5.0188 8.61914 5.16279 8.61914 5.31293Z" fill="#87F54E"/>
<path d="M11.2949 4.07758V9.35818C11.2949 9.50832 11.3546 9.65231 11.4607 9.75847C11.5669 9.86464 11.7109 9.92428 11.861 9.92428C12.0112 9.92428 12.1552 9.86464 12.2613 9.75847C12.3675 9.65231 12.4271 9.50832 12.4271 9.35818V4.07758C12.4271 3.92744 12.3675 3.78345 12.2613 3.67728C12.1552 3.57112 12.0112 3.51147 11.861 3.51147C11.7109 3.51147 11.5669 3.57112 11.4607 3.67728C11.3546 3.78345 11.2949 3.92744 11.2949 4.07758Z" fill="#87F54E"/>
<path d="M13.7852 3.18671V9.35835C13.7852 9.50849 13.8448 9.65248 13.951 9.75865C14.0571 9.86481 14.2011 9.92446 14.3513 9.92446C14.5014 9.92446 14.6454 9.86481 14.7516 9.75865C14.8577 9.65248 14.9174 9.50849 14.9174 9.35835V3.18671C14.9174 3.03657 14.8577 2.89258 14.7516 2.78641C14.6454 2.68025 14.5014 2.62061 14.3513 2.62061C14.2011 2.62061 14.0571 2.68025 13.951 2.78641C13.8448 2.89258 13.7852 3.03657 13.7852 3.18671Z" fill="#87F54E"/>
<path d="M42.3939 6.34885H39.1226V5.7601C39.1226 5.24632 38.9184 4.75359 38.5548 4.39029C38.1912 4.02699 37.6981 3.8229 37.1839 3.8229C36.6697 3.8229 36.1766 4.02699 35.813 4.39029C35.4494 4.75359 35.2452 5.24632 35.2452 5.7601V6.34885H34.3194V5.03775C34.3057 4.40557 34.0448 3.80388 33.5925 3.36162C33.1402 2.91935 32.5325 2.67169 31.8997 2.67169C31.2669 2.67169 30.6592 2.91935 30.2069 3.36162C29.7546 3.80388 29.4937 4.40557 29.48 5.03775V5.70688H28.5384V3.45493C28.5375 2.65947 28.2208 1.89684 27.6579 1.33436C27.095 0.771883 26.3318 0.455489 25.5357 0.45459H20.7619C20.6117 0.45459 20.4676 0.514233 20.3613 0.620397C20.2551 0.726562 20.1954 0.870552 20.1954 1.02069C20.1954 1.17083 20.2551 1.31482 20.3613 1.42099C20.4676 1.52715 20.6117 1.58679 20.7619 1.58679H24.2655V12.5579H4.06576C2.74683 11.5321 2.04771 10.3659 2.04771 9.14539C2.04925 8.11595 2.37732 7.11349 2.98478 6.28204L3.00858 6.24808C3.64878 5.36043 4.60171 4.57015 5.85152 3.89989C8.6718 2.38726 12.862 1.58793 17.9689 1.58793C18.1191 1.58793 18.2632 1.52828 18.3695 1.42212C18.4757 1.31595 18.5354 1.17196 18.5354 1.02182C18.5354 0.871684 18.4757 0.727694 18.3695 0.621529C18.2632 0.515365 18.1191 0.455722 17.9689 0.455722C14.8109 0.455722 11.9804 0.756888 9.57601 1.33997L2.35365 1.10674C2.07275 1.09803 1.79422 1.16058 1.54406 1.28854C1.29391 1.4165 1.08027 1.60571 0.923107 1.83851C0.76594 2.0713 0.670364 2.34009 0.645301 2.61978C0.620237 2.89948 0.666502 3.18096 0.779779 3.43795L1.88001 5.90729C1.25086 6.87031 0.915452 7.99533 0.914617 9.14539C0.914617 11.6827 3.0437 13.8248 6.67641 15.3046L6.02375 18.6446C6.00948 18.718 6.00991 18.7935 6.02501 18.8667C6.04011 18.94 6.06958 19.0095 6.11172 19.0713C6.15387 19.1331 6.20784 19.1859 6.27054 19.2268C6.33323 19.2676 6.4034 19.2956 6.47699 19.3092C6.51435 19.3162 6.55229 19.3196 6.5903 19.3194C6.7209 19.3194 6.84751 19.2743 6.94868 19.1918C7.04986 19.1093 7.11939 18.9944 7.14551 18.8665L7.74945 15.7122C8.87888 16.0965 10.0317 16.4085 11.2009 16.6462L10.5029 20.3972L9.4389 26.1171C9.409 26.2788 9.3234 26.425 9.19695 26.5303C9.0705 26.6355 8.91116 26.6932 8.74658 26.6934H5.65549C5.5677 26.6931 5.48113 26.6728 5.40242 26.634C5.3237 26.5951 5.25492 26.5388 5.20134 26.4693C5.14776 26.3998 5.11079 26.319 5.09328 26.233C5.07576 26.1471 5.07815 26.0582 5.10028 25.9733L6.4396 20.8886C6.47442 20.7446 6.45132 20.5926 6.37526 20.4654C6.29921 20.3382 6.17626 20.2458 6.03281 20.2082C5.88937 20.1705 5.73688 20.1906 5.60807 20.264C5.47926 20.3375 5.38441 20.4585 5.34389 20.601L4.00457 25.6756C3.93614 25.9287 3.92701 26.1942 3.97791 26.4514C4.0288 26.7087 4.13834 26.9507 4.29803 27.1588C4.45772 27.3669 4.66325 27.5354 4.89868 27.6512C5.1341 27.7671 5.39307 27.8271 5.65549 27.8268H8.74658C9.17568 27.8266 9.59119 27.6763 9.92108 27.4021C10.251 27.1279 10.4744 26.747 10.5527 26.3255L11.4887 21.2985L14.2376 22.4443C14.5841 22.5887 14.9596 22.65 15.3341 22.6233C15.7086 22.5965 16.0716 22.4825 16.394 22.2903C16.7164 22.0981 16.9893 21.8331 17.1908 21.5166C17.3923 21.2 17.5167 20.8407 17.5541 20.4674L17.8703 17.4343C18.6748 17.4705 19.4985 17.489 20.3416 17.4897L22.4616 17.5067H25.5357C26.3316 17.5058 27.0946 17.1896 27.6575 16.6273C28.2204 16.0651 28.5372 15.3028 28.5384 14.5075V12.2805H29.48V13.0855C29.473 13.4074 29.5304 13.7274 29.6489 14.0269C29.7674 14.3263 29.9445 14.5991 30.1699 14.8292C30.3953 15.0594 30.6644 15.2422 30.9614 15.367C31.2585 15.4919 31.5775 15.5562 31.8997 15.5562C32.2219 15.5562 32.541 15.4919 32.838 15.367C33.135 15.2422 33.4041 15.0594 33.6295 14.8292C33.8549 14.5991 34.032 14.3263 34.1505 14.0269C34.269 13.7274 34.3264 13.4074 34.3194 13.0855V11.1834H35.2474V12.2023C35.2474 12.7161 35.4517 13.2089 35.8153 13.5721C36.1789 13.9354 36.672 14.1395 37.1862 14.1395C37.7003 14.1395 38.1935 13.9354 38.5571 13.5721C38.9206 13.2089 39.1249 12.7161 39.1249 12.2023V10.8833H42.3961C42.9972 10.8833 43.5736 10.6448 43.9986 10.2201C44.4236 9.79543 44.6623 9.21947 44.6623 8.61891C44.6623 8.01836 44.4236 7.44239 43.9986 7.01774C43.5736 6.59308 42.9972 6.35451 42.3961 6.35451L42.3939 6.34885ZM1.8143 2.97714C1.77714 2.89535 1.76179 2.80534 1.76973 2.71587C1.77767 2.6264 1.80864 2.5405 1.85962 2.46652C1.90804 2.39132 1.97541 2.33018 2.05497 2.28924C2.13453 2.2483 2.22347 2.229 2.31286 2.23328L6.42147 2.36801C6.03168 2.53558 5.66116 2.70768 5.3099 2.90128C4.32362 3.41357 3.42949 4.08623 2.66412 4.8917L1.8143 2.97714ZM16.4267 20.3542C16.4061 20.551 16.3398 20.7403 16.233 20.9069C16.1262 21.0736 15.9819 21.2129 15.8116 21.3139C15.6413 21.4149 15.4497 21.4747 15.2521 21.4885C15.0546 21.5024 14.8565 21.4698 14.6738 21.3936L11.6994 20.1481L12.3147 16.8455C13.7776 17.0964 15.2527 17.271 16.7338 17.3686L16.4267 20.3542ZM20.3461 16.3621C15.0965 16.3621 10.3522 15.5922 6.98801 14.1962C6.59823 14.0339 6.23073 13.8652 5.88551 13.6901H24.2655V16.379H22.4661L20.3461 16.3621ZM27.4053 14.512C27.4044 15.0071 27.2071 15.4816 26.8566 15.8316C26.5062 16.1816 26.0311 16.3784 25.5357 16.379H25.3986V1.58679H25.5357C26.0313 1.58739 26.5065 1.78441 26.857 2.13462C27.2075 2.48483 27.4047 2.95965 27.4053 3.45493V14.512ZM28.5384 11.1483V6.83909H29.48V11.1483H28.5384ZM33.1841 13.0855C33.1892 13.2575 33.1597 13.4288 33.0973 13.5893C33.035 13.7497 32.941 13.896 32.821 14.0195C32.701 14.143 32.5575 14.2412 32.3988 14.3082C32.2402 14.3753 32.0697 14.4098 31.8974 14.4098C31.7252 14.4098 31.5547 14.3753 31.396 14.3082C31.2374 14.2412 31.0938 14.143 30.9739 14.0195C30.8539 13.896 30.7599 13.7497 30.6976 13.5893C30.6352 13.4288 30.6057 13.2575 30.6108 13.0855V5.03775C30.6207 4.70339 30.7606 4.38605 31.0009 4.15305C31.2411 3.92005 31.5627 3.78972 31.8974 3.78972C32.2322 3.78972 32.5538 3.92005 32.794 4.15305C33.0342 4.38605 33.1741 4.70339 33.1841 5.03775V13.0855ZM34.3172 10.0545V7.48105H35.2474V10.0512L34.3172 10.0545ZM37.9873 12.2057C37.9716 12.4082 37.88 12.5973 37.7307 12.735C37.5814 12.8728 37.3855 12.9492 37.1823 12.9487C36.9791 12.9483 36.7836 12.8711 36.6349 12.7327C36.4862 12.5943 36.3953 12.4049 36.3805 12.2023V5.7601C36.3805 5.5466 36.4654 5.34185 36.6165 5.19088C36.7676 5.03991 36.9725 4.9551 37.1862 4.9551C37.3998 4.9551 37.6048 5.03991 37.7558 5.19088C37.9069 5.34185 37.9918 5.5466 37.9918 5.7601L37.9873 12.2057ZM42.3916 9.75112H39.5974V7.48671H42.3939C42.6944 7.48671 42.9826 7.606 43.1951 7.81832C43.4076 8.03065 43.527 8.31864 43.527 8.61891C43.527 8.91919 43.4076 9.20717 43.1951 9.4195C42.9826 9.63183 42.6944 9.75112 42.3939 9.75112H42.3916Z" fill="#87F54E"/>
</svg>
